<svg id="visual" viewBox="0 0 900 600" width="900" height="600" xmlns="http://www.w3.org/2000/svg" xmlns:xlink="http://www.w3.org/1999/xlink" version="1.1"><path d="M548 600L543.5 585.7C539 571.3 530 542.7 527 514.2C524 485.7 527 457.3 557 428.8C587 400.3 644 371.7 692 343C740 314.3 779 285.7 762.5 257C746 228.3 674 199.7 618.5 171.2C563 142.7 524 114.3 554 85.8C584 57.3 683 28.7 732.5 14.3L782 0L900 0L900 14.3C900 28.7 900 57.3 900 85.8C900 114.3 900 142.7 900 171.2C900 199.7 900 228.3 900 257C900 285.7 900 314.3 900 343C900 371.7 900 400.3 900 428.8C900 457.3 900 485.7 900 514.2C900 542.7 900 571.3 900 585.7L900 600Z" fill="#64bef6"></path><path d="M26 600L27.5 585.7C29 571.3 32 542.7 102.5 514.2C173 485.7 311 457.3 347 428.8C383 400.3 317 371.7 321.5 343C326 314.3 401 285.7 408.5 257C416 228.3 356 199.7 294.5 171.2C233 142.7 170 114.3 210.5 85.8C251 57.3 395 28.7 467 14.3L539 0L783 0L733.5 14.3C684 28.7 585 57.3 555 85.8C525 114.3 564 142.7 619.5 171.2C675 199.7 747 228.3 763.5 257C780 285.7 741 314.3 693 343C645 371.7 588 400.3 558 428.8C528 457.3 525 485.7 528 514.2C531 542.7 540 571.3 544.5 585.7L549 600Z" fill="#ffffff"></path><path d="M0 600L0 585.7C0 571.3 0 542.7 0 514.2C0 485.7 0 457.3 0 428.8C0 400.3 0 371.7 0 343C0 314.3 0 285.7 0 257C0 228.3 0 199.7 0 171.2C0 142.7 0 114.3 0 85.8C0 57.3 0 28.7 0 14.3L0 0L540 0L468 14.3C396 28.7 252 57.3 211.5 85.8C171 114.3 234 142.7 295.5 171.2C357 199.7 417 228.3 409.5 257C402 285.7 327 314.3 322.5 343C318 371.7 384 400.3 348 428.8C312 457.3 174 485.7 103.5 514.2C33 542.7 30 571.3 28.5 585.7L27 600Z" fill="#64bef6"></path></svg>