<svg id="visual" viewBox="0 0 900 600" width="900" height="600" xmlns="http://www.w3.org/2000/svg" xmlns:xlink="http://www.w3.org/1999/xlink" version="1.1"><rect x="0" y="0" width="900" height="600" fill="#fafafa"></rect><path d="M0 446L21.5 434.8C43 423.7 86 401.3 128.8 394.2C171.7 387 214.3 395 257.2 406.2C300 417.3 343 431.7 385.8 438C428.7 444.3 471.3 442.7 514.2 430.3C557 418 600 395 642.8 382.3C685.7 369.7 728.3 367.3 771.2 365.2C814 363 857 361 878.5 360L900 359L900 601L878.5 601C857 601 814 601 771.2 601C728.3 601 685.7 601 642.8 601C600 601 557 601 514.2 601C471.3 601 428.7 601 385.8 601C343 601 300 601 257.2 601C214.3 601 171.7 601 128.8 601C86 601 43 601 21.5 601L0 601Z" fill="#69adfa"></path><path d="M0 409L21.5 415.8C43 422.7 86 436.3 128.8 435.2C171.7 434 214.3 418 257.2 416C300 414 343 426 385.8 426.5C428.7 427 471.3 416 514.2 420.5C557 425 600 445 642.8 455.7C685.7 466.3 728.3 467.7 771.2 466.7C814 465.7 857 462.3 878.5 460.7L900 459L900 601L878.5 601C857 601 814 601 771.2 601C728.3 601 685.7 601 642.8 601C600 601 557 601 514.2 601C471.3 601 428.7 601 385.8 601C343 601 300 601 257.2 601C214.3 601 171.7 601 128.8 601C86 601 43 601 21.5 601L0 601Z" fill="#5c7fc9"></path><path d="M0 457L21.5 458.8C43 460.7 86 464.3 128.8 461.5C171.7 458.7 214.3 449.3 257.2 451.5C300 453.7 343 467.3 385.8 478.2C428.7 489 471.3 497 514.2 493.7C557 490.3 600 475.7 642.8 474C685.7 472.3 728.3 483.7 771.2 491.7C814 499.7 857 504.3 878.5 506.7L900 509L900 601L878.5 601C857 601 814 601 771.2 601C728.3 601 685.7 601 642.8 601C600 601 557 601 514.2 601C471.3 601 428.7 601 385.8 601C343 601 300 601 257.2 601C214.3 601 171.7 601 128.8 601C86 601 43 601 21.5 601L0 601Z" fill="#4e5398"></path><path d="M0 485L21.5 490.5C43 496 86 507 128.8 509.3C171.7 511.7 214.3 505.3 257.2 503C300 500.7 343 502.3 385.8 504.3C428.7 506.3 471.3 508.7 514.2 513C557 517.3 600 523.7 642.8 526C685.7 528.3 728.3 526.7 771.2 520.7C814 514.7 857 504.3 878.5 499.2L900 494L900 601L878.5 601C857 601 814 601 771.2 601C728.3 601 685.7 601 642.8 601C600 601 557 601 514.2 601C471.3 601 428.7 601 385.8 601C343 601 300 601 257.2 601C214.3 601 171.7 601 128.8 601C86 601 43 601 21.5 601L0 601Z" fill="#3c2a68"></path><path d="M0 532L21.5 531.7C43 531.3 86 530.7 128.8 537.3C171.7 544 214.3 558 257.2 559.8C300 561.7 343 551.3 385.8 544.7C428.7 538 471.3 535 514.2 534.3C557 533.7 600 535.3 642.8 537.2C685.7 539 728.3 541 771.2 546.3C814 551.7 857 560.3 878.5 564.7L900 569L900 601L878.5 601C857 601 814 601 771.2 601C728.3 601 685.7 601 642.8 601C600 601 557 601 514.2 601C471.3 601 428.7 601 385.8 601C343 601 300 601 257.2 601C214.3 601 171.7 601 128.8 601C86 601 43 601 21.5 601L0 601Z" fill="#270039"></path></svg>